<!DOCTYPE svg PUBLIC "-//W3C//DTD SVG 1.1//EN" "http://www.w3.org/Graphics/SVG/1.1/DTD/svg11.dtd">
<!-- Uploaded to: SVG Repo, www.svgrepo.com, Transformed by: SVG Repo Mixer Tools -->
<svg width="800px" height="800px" viewBox="0 -1.5 60 60" version="1.1" xmlns="http://www.w3.org/2000/svg" xmlns:xlink="http://www.w3.org/1999/xlink" fill="#f5e8da">

<g id="SVGRepo_bgCarrier" stroke-width="0"/>

<g id="SVGRepo_tracerCarrier" stroke-linecap="round" stroke-linejoin="round"/>

<g id="SVGRepo_iconCarrier"> <title/> <desc/> <g fill="none" fill-rule="evenodd" id="Page-1" stroke="none" stroke-width="1"> <g fill="#f5e8da" id="001---Headphones"> <path d="M9,47 C9.55228475,47 10,46.5522847 10,46 L10,39 C10,38.4477153 9.55228475,38 9,38 C8.44771525,38 8,38.4477153 8,39 L8,46 C8,46.5522847 8.44771525,47 9,47 Z" id="Path"/> <path d="M9.037,49.135 C8.56041953,49.412148 8.3980457,50.0227273 8.674,50.5 C8.94564166,50.9697629 9.29220631,51.3919907 9.7,51.75 C10.2877748,52.2665573 10.9880228,52.6387674 11.745,52.837 C12.2743486,52.9614587 12.8061281,52.6401111 12.9421062,52.1136039 C13.0780843,51.5870966 12.7684152,51.0484328 12.245,50.901 C11.7899606,50.7822946 11.3690517,50.5586546 11.016,50.248 C10.7715919,50.0335956 10.5635599,49.7809853 10.4,49.5 C10.1235937,49.0238912 9.51434863,48.8607405 9.037,49.135 Z" id="Path"/> <path d="M43.511,37.008 C42.9632525,37.0761407 42.5743014,37.5751977 42.642,38.123 C42.8502639,39.7404981 42.9598001,41.3691812 42.97,43 C42.97,43.916 42.928,44.9 42.844,45.919 C42.8216023,46.1839313 42.9056306,46.4468755 43.0775144,46.6497209 C43.2493982,46.8525663 43.4949853,46.9786115 43.76,47 C43.787,47 43.814,47 43.842,47 C44.364139,47.0017155 44.7997093,46.6014263 44.842,46.081 C44.929,45.007 44.974,43.97 44.974,43 C44.9639877,41.2869133 44.8491061,39.5760464 44.63,37.877 C44.5993807,37.6122452 44.4635148,37.3709479 44.2530156,37.2074771 C44.0425163,37.0440063 43.7750925,36.9721144 43.511,37.008 Z" id="Path"/> <path d="M43.358,50.016 C43.0968117,49.9677935 42.8271973,50.0262301 42.6094067,50.1782514 C42.3916161,50.3302726 42.2438035,50.5632065 42.199,50.825 C42.142,51.151 42.081,51.479 42.018,51.813 C41.9148856,52.3549766 42.2701788,52.878072 42.812,52.982 C42.8739719,52.993824 42.9369104,52.9998501 43,53 C43.4793522,52.9994396 43.8908821,52.6588052 43.981,52.188 C44.047,51.847 44.107,51.509 44.167,51.175 C44.2633234,50.6316237 43.9012682,50.1129314 43.358,50.016 Z" id="Path"/> <path d="M1.445,41.441 C2.1242945,42.1811052 3.01737487,42.6910873 4,42.9 L4,48 C4.00937386,52.9721405 8.04185093,56.9983546 13.014,57 L17,57 C18.4916296,57.001538 19.9060518,56.3370248 20.857083,55.1878943 C21.8081142,54.0387638 22.1964273,52.525033 21.916,51.06 C21.3714286,48.4066325 21.0751493,45.7083146 21.031,43 C21.0751493,40.2916854 21.3714286,37.5933675 21.916,34.94 C22.1964273,33.474967 21.8081142,31.9612362 20.857083,30.8121057 C19.9060518,29.6629752 18.4916296,28.998462 17,29 L13.014,29 C8.04185093,29.0016454 4.00937386,33.0278595 4,38 L4,40.809 C3.58717704,40.656983 3.21610145,40.4095993 2.917,40.087 C2.37037051,39.4962244 2.099345,38.7016765 2.171,37.9 C2.50397697,33.8142477 3.38383167,29.7916704 4.787,25.94 C4.96639329,25.9725426 5.14782954,25.9925908 5.33,26 C6.87927216,26.0000115 8.29002622,25.1077796 8.954,23.708 C10.3700665,20.6731114 12.240184,17.8716442 14.5,15.4 C16.2402464,16.626451 18.5690738,16.605525 20.287,15.348 C23.0791178,13.2141567 26.4860813,12.0398014 30,12 C33.5146046,12.0404494 36.9219856,13.2158801 39.714,15.351 C41.4283285,16.6192597 43.7644379,16.6390436 45.5,15.4 C47.7595365,17.8711209 49.629635,20.671885 51.046,23.706 C51.7292854,25.3269264 53.4462442,26.2562704 55.177,25.942 C56.6068783,30.1349308 57.5009662,34.491803 57.838,38.909 C57.9056171,39.7109002 57.631424,40.5040627 57.083,41.093 C56.7839108,41.4146705 56.412736,41.6607494 56,41.811 L56,38 C55.9906261,33.0278595 51.9581491,29.0016454 46.986,29 L43,29 C41.5083704,28.998462 40.0939482,29.6629752 39.142917,30.8121057 C38.1918858,31.9612362 37.8035727,33.474967 38.084,34.94 C38.6290622,37.5933116 38.9256779,40.2916443 38.97,43 C38.9256779,45.7083557 38.6290622,48.4066884 38.084,51.06 C37.8035727,52.525033 38.1918858,54.0387638 39.142917,55.1878943 C40.0939482,56.3370248 41.5083704,57.001538 43,57 L46.986,57 C51.9581491,56.9983546 55.9906261,52.9721405 56,48 L56,43.9 C56.9814276,43.6980038 57.8743232,43.1920763 58.552,42.454 C59.4742593,41.4521073 59.9379976,40.111614 59.832,38.754 C59.4879902,34.1386564 58.5495673,29.5870367 57.04,25.212 C58.5706148,24.0755966 59.09019,22.0190317 58.283,20.292 C52.266,7.585 41.691,0 30,0 C18.309,0 7.735,7.586 1.727,20.29 C0.914010816,22.0027732 1.41510735,24.0510053 2.927,25.195 C1.45152033,29.2314999 0.526862235,33.4484656 0.178,37.732 C0.0645900319,39.0909272 0.523886986,40.4354674 1.445,41.441 Z M6,38 C6.00827089,34.131972 9.14596315,31.0005426 13.014,31 L17,31 C17.8951859,30.9984177 18.7443084,31.3966861 19.315431,32.0860186 C19.8865535,32.7753511 20.1199982,33.683718 19.952,34.563 C19.383226,37.3405619 19.0748892,40.1651406 19.031,43 C19.0748892,45.8348594 19.383226,48.6594381 19.952,51.437 C20.1199982,52.316282 19.8865535,53.2246489 19.315431,53.9139814 C18.7443084,54.6033139 17.8951859,55.0015823 17,55 L13.014,55 C9.14596315,54.9994574 6.00827089,51.868028 6,48 L6,38 Z M54,48 C53.9917291,51.868028 50.8540369,54.9994574 46.986,55 L43,55 C42.104989,55.0012835 41.2561467,54.6028878 40.6852508,53.9135953 C40.1143549,53.2243027 39.8810352,52.3161099 40.049,51.437 C40.6174178,48.6593823 40.9257508,45.834837 40.97,43 C40.9257508,40.165163 40.6174178,37.3406177 40.049,34.563 C39.8810352,33.6838901 40.1143549,32.7756973 40.6852508,32.0864047 C41.2561467,31.3971122 42.104989,30.9987165 43,31 L46.986,31 C50.8540369,31.0005426 53.9917291,34.131972 54,38 L54,48 Z M40.892,13.735 C37.7508567,11.3634843 33.9354578,10.0551374 30,10 C26.0645422,10.0551374 22.2491433,11.3634843 19.108,13.735 C18.1798659,14.4160059 16.9427778,14.5023958 15.929,13.957 C16.075,13.821 16.218,13.679 16.366,13.547 C16.61,13.329 16.856,13.115 17.104,12.909 C17.41,12.655 17.72,12.415 18.032,12.181 C18.286,11.99 18.54,11.801 18.799,11.623 C19.117,11.404 19.44,11.2 19.765,11 C20.026,10.84 20.287,10.677 20.552,10.529 C20.884,10.343 21.222,10.176 21.56,10.01 C21.825,9.88 22.089,9.745 22.36,9.628 C22.71,9.474 23.066,9.344 23.422,9.212 C23.686,9.112 23.947,9.012 24.213,8.922 C24.589,8.801 24.971,8.706 25.353,8.608 C25.605,8.544 25.853,8.468 26.108,8.414 C26.535,8.323 26.966,8.264 27.397,8.204 C27.612,8.174 27.824,8.128 28.04,8.104 C29.3431792,7.96266666 30.6578208,7.96266666 31.961,8.104 C32.177,8.126 32.389,8.172 32.604,8.204 C33.034,8.264 33.465,8.324 33.89,8.414 C34.143,8.468 34.39,8.544 34.644,8.608 C35.026,8.708 35.408,8.801 35.786,8.923 C36.049,9.008 36.308,9.113 36.569,9.21 C36.927,9.342 37.286,9.474 37.639,9.629 C37.905,9.745 38.166,9.879 38.428,10.007 C38.77,10.175 39.111,10.343 39.446,10.531 C39.709,10.677 39.967,10.838 40.226,10.998 C40.553,11.198 40.88,11.404 41.201,11.626 C41.457,11.802 41.71,11.99 41.963,12.179 C42.277,12.414 42.589,12.656 42.896,12.911 C43.145,13.116 43.39,13.33 43.634,13.548 C43.782,13.68 43.926,13.821 44.073,13.958 C43.0585217,14.503956 41.820383,14.4171579 40.892,13.735 Z M3.534,21.147 C9.2,9.158 19.1,2 30,2 C40.9,2 50.8,9.158 56.475,21.145 C56.9403866,22.1435376 56.51481,23.3306017 55.521,23.806 C55.507,23.813 55.491,23.816 55.476,23.823 L55.469,23.823 L55.464,23.823 C54.4735964,24.2611017 53.3145995,23.8281431 52.854,22.848 C51.2277707,19.3345558 49.0234976,16.1189063 46.333,13.335 C41.616,8.538 35.969,6 30,6 C28.8863328,5.99951062 27.7744251,6.08846324 26.675,6.266 C23.701201,6.76009341 20.8619285,7.86461432 18.336,9.51 C18.13,9.641 17.928,9.783 17.725,9.922 C17.604,10.005 17.482,10.082 17.363,10.167 C16.037769,11.1125404 14.7995283,12.1744155 13.663,13.34 C10.9729864,16.1244638 8.7690768,19.3404141 7.143,22.854 C6.67196658,23.820484 5.5258992,24.2479504 4.537,23.826 C4.531,23.826 4.528,23.818 4.522,23.816 C4.516,23.814 4.507,23.816 4.499,23.816 L4.479,23.809 C3.48410323,23.3338282 3.06140798,22.1431248 3.534,21.147 Z" fill-rule="nonzero" id="Shape"/> </g> </g> </g>

</svg>